<svg width="263" height="107" viewBox="0 0 263 107" fill="none" xmlns="http://www.w3.org/2000/svg">
<g filter="url(#filter0_d_2_2)">
<path d="M76.902 46.2071C76.3473 46.2061 76.0709 45.7362 76.0726 44.7976C76.0731 44.5416 76.1162 44.307 76.2019 44.0938C76.2876 43.8806 76.5225 43.7744 76.9065 43.7751L81.7065 43.784C81.7938 42.7175 81.9242 41.4164 82.0977 39.8807C82.2713 38.3024 82.4451 36.5747 82.6193 34.6977C83.0546 30.0051 83.2758 25.7602 83.2828 21.9629L83.3115 6.41089L79.4065 6.97968L68.834 13.7441C68.7913 13.7441 68.7484 13.8507 68.7054 14.0639C68.7051 14.2346 68.6622 14.3198 68.5769 14.3197C68.1076 14.3188 67.7026 14.1047 67.3621 13.6774C67.0215 13.2501 66.8517 12.8018 66.8526 12.3325L71.1614 1.07643L78.3892 3.32979C79.5832 3.716 81.3535 3.91127 83.7002 3.91561L88.6284 3.79671L94.8363 3.87219C97.9509 3.87795 100.512 3.41335 102.519 2.47839C102.903 2.30843 103.223 2.13836 103.48 1.96816C103.694 1.75522 103.929 1.56366 104.185 1.39347C104.655 1.053 105.188 0.883318 105.786 0.884423C106.383 0.885527 106.767 1.01424 106.937 1.27055L111.273 10.1746C111.272 10.3879 111.058 10.7075 110.631 11.1334C110.246 11.5167 110.054 11.687 110.054 11.6443L102.636 8.49461L97.3275 6.4368C96.8155 6.43585 96.3886 6.56306 96.0468 6.81843C95.7477 7.07388 95.5121 7.58545 95.34 8.35313C94.9963 9.6325 94.8202 12.5762 94.8117 17.1842L94.396 34.3354C94.386 39.7114 94.6364 42.7412 95.1472 43.4248C95.3173 43.6811 95.5305 43.7882 95.7866 43.746L99.2432 43.4324C99.7978 43.4334 100.267 43.477 100.651 43.563C100.992 43.5636 101.163 43.7773 101.162 44.2039C101.16 45.3133 100.881 45.9101 100.326 45.9944L96.3579 46.2431L76.902 46.2071Z" fill="#EF5DA8"/>
<path d="M123.302 25.1728C123.308 21.8022 121.818 20.1141 118.831 20.1086C117.551 20.1062 116.654 20.5952 116.141 21.5756C115.884 22.1298 115.733 22.7482 115.689 23.4308C115.688 24.0708 115.773 24.4763 115.943 24.6472C116.156 24.8183 116.262 25.1172 116.261 25.5438C116.26 26.3118 115.811 26.823 114.914 27.0773C114.359 27.247 113.549 27.3308 112.482 27.3288C111.714 27.3274 110.754 27.5176 109.601 27.8995C108.448 28.2814 107.786 28.4722 107.616 28.4719C107.232 28.4711 106.934 28.2359 106.721 27.7662C106.551 27.2965 106.467 26.8484 106.468 26.4217C106.469 25.6537 106.962 24.46 107.946 22.8404C108.973 21.1783 109.85 20.0706 110.576 19.5173C111.901 18.5384 113.118 17.7513 114.229 17.1561C115.339 16.5181 116.492 16.2002 117.687 16.2024C123.83 16.2138 127.795 17.8638 129.581 21.1524C130.602 23.0317 131.11 25.2939 131.105 27.9393C131.103 29.0913 130.951 30.2643 130.65 31.4584C130.349 32.6525 130.198 33.8043 130.196 34.9136C130.193 36.7056 130.552 38.3703 131.275 39.9076C132.211 41.232 133.02 42.0015 133.702 42.2161C133.958 42.2166 134.193 42.1317 134.407 41.9614C134.663 41.7912 134.898 41.7063 135.111 41.7067C136.007 41.7083 136.455 42.1572 136.453 43.0532C136.451 43.9065 136.066 44.6525 135.297 45.291C133.758 46.5682 132.285 47.2055 130.877 47.2029C129.469 47.2003 128.467 47.1131 127.87 46.9413C127.273 46.7695 126.74 46.5339 126.271 46.2344C125.802 45.9348 125.397 45.6141 125.057 45.2721L124.035 44.3102L123.076 43.3485C122.821 43.0493 122.672 42.8997 122.629 42.8996C119.721 46.3929 116.049 48.1355 111.611 48.1273C109.094 48.1226 107.026 47.2441 105.408 45.4918C103.833 43.7395 103.047 42.0954 103.049 40.5594C103.055 37.6581 104.51 35.3141 107.414 33.5275C110.404 31.741 114.93 30.4267 120.99 29.5846C121.587 29.543 122.057 29.3945 122.399 29.1392C122.997 28.7136 123.298 27.3915 123.302 25.1728ZM114.387 35.3324C113.916 36.0995 113.68 36.8244 113.679 37.5071C113.676 39.1284 113.823 40.622 114.119 41.9879C114.415 43.3538 114.926 44.0801 115.651 44.1667C116.717 44.1687 117.635 43.8717 118.404 43.2758C119.772 42.2117 120.499 41.1464 120.586 40.0798L121.369 32.0813C118.041 32.0751 115.714 33.1588 114.387 35.3324Z" fill="#EF5DA8"/>
<path d="M148.02 19.7785C144.479 19.772 142.707 20.302 142.705 21.3687C142.703 22.6914 143.106 23.8654 143.914 24.8909C144.723 25.9164 145.724 26.8996 146.917 27.8405C148.11 28.7387 149.41 29.6158 150.816 30.4717C152.265 31.3277 153.586 32.2262 154.779 33.167C157.591 35.3909 158.995 37.7188 158.99 40.1508C158.985 43.1375 157.317 45.1824 153.987 46.2856C151.938 46.9645 149.377 47.3011 146.305 47.2954C143.276 47.2898 140.759 47.0505 138.754 46.5774C136.793 46.1045 135.193 45.7815 133.956 45.6086C132.762 45.4784 132.037 45.2423 131.781 44.9005C131.569 44.5588 131.463 44.1533 131.464 43.684C131.465 43.172 131.572 42.7242 131.786 42.3405C132 41.9143 132.257 41.5094 132.556 41.126C133.412 40.0182 133.925 39.2298 134.097 38.7608C134.268 38.2491 134.397 37.78 134.483 37.3535C134.569 37.0124 134.698 36.6713 134.869 36.3302C135.212 35.5629 135.746 35.1799 136.471 35.1812C137.239 35.1826 137.879 35.6745 138.389 36.6567C138.942 37.6391 139.558 38.7282 140.239 39.9242C140.962 41.0775 141.813 42.1457 142.793 43.1289C143.815 44.1121 145.158 44.6053 146.822 44.6083C149.681 44.6136 151.112 43.8269 151.114 42.2483C151.117 40.9256 149.627 39.1309 146.644 36.864C145.366 35.8803 143.96 34.8537 142.426 33.7842C140.892 32.7147 139.486 31.6454 138.208 30.5764C135.183 28.0961 133.672 25.96 133.676 24.168C133.679 22.504 134.108 21.2248 134.963 20.3304C135.861 19.3934 136.95 18.6701 138.231 18.1604C139.982 17.4383 142.671 16.9313 146.298 16.6393L149.498 16.5812L154.362 16.5262C156.239 16.5297 157.37 16.6598 157.753 16.9165C158.307 17.3442 158.583 18.1554 158.581 19.35C158.579 20.5447 158.555 21.59 158.511 22.4859C158.509 23.3819 158.465 24.1712 158.379 24.8537C158.205 26.2614 157.777 26.9646 157.095 26.9633C156.156 26.9616 155.325 26.5974 154.601 25.8707C153.877 25.1013 153.174 24.2681 152.493 23.3708C151.855 22.4736 151.174 21.6617 150.45 20.935C149.769 20.1657 148.959 19.7803 148.02 19.7785Z" fill="#EF5DA8"/>
<path d="M194.837 44.5051C194.836 45.4864 192.872 45.9735 188.947 45.9662C186.856 45.9623 185.512 45.8959 184.915 45.7668C184.361 45.6377 183.7 45.4658 182.932 45.2511C182.164 45.0363 181.419 44.5443 180.695 43.7749C180.013 42.963 179.396 42.0659 178.844 41.0835C178.334 40.0586 177.866 38.991 177.442 37.8809C176.974 36.8134 176.485 35.8098 175.975 34.8702C174.784 32.7773 173.378 31.7081 171.757 31.6624C171.032 31.6611 170.584 31.7029 170.413 31.7879L169.579 32.5544C169.493 33.2369 169.428 33.7914 169.384 34.218C169.341 34.6446 169.297 35.0499 169.254 35.4338C169.211 35.8177 169.189 36.095 169.189 36.2657C169.188 36.4363 169.209 36.8204 169.25 37.4178C169.335 37.9726 169.376 38.57 169.375 39.21C169.415 40.7034 169.477 41.7062 169.561 42.2184C169.689 42.6453 170.008 42.9019 170.52 42.9881L172.184 43.2472C172.781 43.3337 173.314 43.5053 173.783 43.7622C174.252 44.019 174.485 44.4888 174.484 45.1715C174.483 45.8541 174.205 46.195 173.65 46.1939C173.309 46.1933 172.754 46.2136 171.986 46.2549C171.218 46.2961 170.343 46.3372 169.362 46.378C168.38 46.4189 167.356 46.4596 166.29 46.5003L163.089 46.7504C162.108 46.7913 161.233 46.8323 160.465 46.8736C159.697 46.9148 159.121 46.9564 158.737 46.9984C157.371 46.9958 156.69 46.4613 156.692 45.3946C156.693 44.8399 156.864 44.4136 157.206 44.1155C157.548 43.7748 157.911 43.4555 158.296 43.1575C158.723 42.817 159.108 42.4337 159.45 42.0077C159.792 41.5816 159.964 40.9633 159.965 40.1526C160.571 35.8444 160.875 32.773 160.878 30.9383L160.888 25.9463C160.897 20.9117 160.606 16.4311 160.016 12.5047C159.805 11.3523 159.188 10.6898 158.164 10.5172C157.738 10.4311 157.29 10.345 156.821 10.2588C156.351 10.1299 155.947 9.83049 155.606 9.36052L155.543 9.10441C155.544 8.50707 155.822 8.05959 156.377 7.76194C156.932 7.4643 157.487 7.316 158.042 7.31702L158.426 7.38173C159.066 7.12692 160.198 6.63834 161.821 5.916L165.472 4.19475C166.326 3.81233 166.881 3.57869 167.137 3.49383C167.393 3.3663 167.65 3.19611 167.906 2.98325L168.675 2.21667C169.402 1.62067 170.021 1.32315 170.533 1.3241C171.301 1.32552 171.684 1.90223 171.682 3.05422C171.68 4.20622 171.529 5.10195 171.229 5.74139C170.924 9.19683 170.703 13.1858 170.567 17.7082C170.43 22.2306 170.362 24.5772 170.362 24.7478L170.36 25.5158L170.421 27.5639L170.419 28.2039C174.776 25.6946 178.536 22.9069 181.699 19.8408C181.102 19.7543 180.483 19.6252 179.844 19.4533C179.247 19.2389 178.949 18.7477 178.95 17.9797C178.952 16.8277 180.212 16.254 182.729 16.2587C187.465 16.2674 189.832 17.0398 189.829 18.5758C189.827 19.6851 188.439 20.2372 185.666 20.2321L177.59 26.5532C179.807 27.7519 182.192 30.1884 184.745 33.8624L187.553 38.0276C188.447 39.3519 189.149 40.2706 189.66 40.7835C190.214 41.2965 190.747 41.6602 191.258 41.8745C191.813 42.0462 192.345 42.2605 192.857 42.5174C193.411 42.7318 193.88 42.9887 194.264 43.288C194.647 43.5874 194.838 43.9931 194.837 44.5051Z" fill="#ea5DA8"/>
<path d="M4.59375 79.7188C4.59375 78.7604 4.72917 77.7813 5 76.7813C5.27083 75.7604 5.63542 74.9167 6.09375 74.25L9.09375 74.8125L12.4688 45.5625L7.65625 44.875C7.26042 43.8333 7.0625 42.7708 7.0625 41.6875C7.0625 40.5833 7.28125 39.4583 7.71875 38.3125C8.82292 37.7917 10.7083 37.375 13.375 37.0625C16.0625 36.7292 18.4479 36.5625 20.5312 36.5625C22.4688 36.5625 24.8542 36.6042 27.6875 36.6875L28.7812 37.1875C29.2396 38.4792 29.8646 40.6979 30.6562 43.8438C31.4688 46.9688 32.8438 52.4896 34.7812 60.4063C35.0938 61.6354 35.4375 63.0313 35.8125 64.5938C36.8125 60.9688 38.0417 55.8438 39.5 49.2188L40.2812 45.8125H40.4375L35.25 44.9375C34.75 43.7708 34.5 42.5208 34.5 41.1875C34.5 40.3125 34.6146 39.3646 34.8438 38.3438C36.8646 37.6979 38.9688 37.2396 41.1562 36.9688C43.3646 36.6979 45.7708 36.5625 48.375 36.5625H49.4062C50.5104 36.5625 52.0833 36.6042 54.125 36.6875L55.2188 37.1875C56.5521 42.0208 57.8229 47.8854 59.0312 54.7813C60.2604 61.6563 61.1875 67.9688 61.8125 73.7188L61.9062 74.5C61.9271 74.6458 61.9792 75.1458 62.0625 76C62.1458 76.8333 62.1875 77.6354 62.1875 78.4063C62.1875 79.3438 62.0938 80.2708 61.9062 81.1875C61.5938 82.5625 61.0312 83.6979 60.2188 84.5938C59.4062 84.9271 58.5521 85.1771 57.6562 85.3438C56.7812 85.5313 55.7604 85.625 54.5938 85.625C53.4479 85.625 52.3021 85.4896 51.1562 85.2188C50.0312 84.9688 49.2812 84.5938 48.9062 84.0938L50.0312 76.9375L48.1562 57.2813L48.3125 46.8125H47.3438L45.8125 57.5313C43.7708 65.0938 41.9062 70.9479 40.2188 75.0938C40.8021 76.2396 41.3021 77.5104 41.7188 78.9063C42.1562 80.3021 42.4271 81.6667 42.5312 83C41.6562 83.8333 40.4583 84.4792 38.9375 84.9375C37.4375 85.3958 35.8438 85.625 34.1562 85.625C32.4271 85.625 30.8438 85.3854 29.4062 84.9063C27.9896 84.4271 26.9583 83.7604 26.3125 82.9063C26.4167 80.8021 26.9375 78.7708 27.875 76.8125L22.3125 56.7188L20 47.25L18.9375 47.4063L20.4688 58C20.3854 61.6875 20.25 65.4375 20.0625 69.25C19.875 73.0625 19.6667 76.0833 19.4375 78.3125H19.4688C19.3021 79.625 18.8542 80.7917 18.125 81.8125C17.4167 82.8125 16.5104 83.5938 15.4062 84.1563C14.3229 84.7188 13.1458 85 11.875 85C8.54167 85 6.13542 83.5625 4.65625 80.6875C4.61458 80.2708 4.59375 79.9479 4.59375 79.7188Z" fill="#01acbc"/>
<path d="M72.5038 64.4063C73.7329 64.4063 75.0871 64.5313 76.5663 64.7813C78.0663 65.0313 79.4413 65.3333 80.6913 65.6875V64.7188C80.6913 64.0729 80.6704 63.3542 80.6288 62.5625C80.6079 61.7708 80.5663 61.25 80.5038 61C80.3163 60.6458 79.7746 60.2813 78.8788 59.9063C78.0038 59.5313 76.5663 59.3438 74.5663 59.3438C73.3371 59.3438 72.0663 59.5 70.7538 59.8125C69.4621 60.1042 68.0246 60.5 66.4412 61C65.5871 59.5833 64.8996 58.2396 64.3787 56.9688C63.8787 55.6771 63.6287 54.3854 63.6287 53.0938C63.6287 52.6979 63.66 52.3021 63.7225 51.9063C67.0975 49.2813 71.4621 47.9688 76.8163 47.9688C79.7746 47.9688 82.3996 48.3021 84.6913 48.9688C86.9829 49.6354 88.8683 50.9271 90.3475 52.8438C91.8267 54.7604 92.5663 57.4792 92.5663 61C92.5663 64.4375 92.16 67.7708 91.3475 71C90.5558 74.2083 90.1496 75.8438 90.1288 75.9063L94.66 73.9688C95.2642 74.6146 95.7954 75.4063 96.2538 76.3438C96.7329 77.2604 97.035 78.3229 97.16 79.5313C96.8683 80.1563 96.2329 80.9583 95.2538 81.9375C94.2746 82.8958 93.0767 83.75 91.66 84.5C90.2433 85.25 88.7642 85.625 87.2225 85.625C85.4933 85.625 84.1808 85.1146 83.285 84.0938C82.41 83.0729 81.9725 81.75 81.9725 80.125C81.9725 79.2083 82.1079 78.2813 82.3788 77.3438L81.4413 77.0625C80.8579 80.3542 79.6183 82.6042 77.7225 83.8125C75.8267 85.0208 73.7329 85.625 71.4413 85.625C69.9413 85.625 68.4933 85.2083 67.0975 84.375C65.7017 83.5208 64.5662 82.2917 63.6912 80.6875C62.8162 79.0625 62.3787 77.1667 62.3787 75C62.3787 71.5417 63.2433 68.9167 64.9725 67.125C66.7017 65.3125 69.2121 64.4063 72.5038 64.4063ZM76.0663 76.3125C76.5871 76.2083 77.2017 75.9167 77.91 75.4375C78.6392 74.9583 79.285 74.3854 79.8475 73.7188C80.41 73.0521 80.7433 72.4167 80.8475 71.8125L80.66 71.0625C79.5558 70.9167 78.3788 70.8438 77.1288 70.8438C76.0663 70.8438 75.3371 70.9271 74.9413 71.0938C74.2746 71.8438 73.9413 72.6771 73.9413 73.5938C73.9413 74.2604 74.1079 74.8646 74.4413 75.4063C74.7954 75.9479 75.3371 76.25 76.0663 76.3125Z" fill="#01acbc"/>
<path d="M97.8512 74.125C97.8512 70.7292 97.8929 68.1667 97.9762 66.4375C98.0596 64.6875 98.2783 62.125 98.6325 58.75L95.0075 58.2813C94.57 56.9271 94.2783 55.7188 94.1325 54.6563C94.0075 53.5938 93.945 52.2188 93.945 50.5313C94.2783 50.2396 94.8304 49.8958 95.6012 49.5C96.3929 49.0833 97.3304 48.7292 98.4137 48.4375C99.4971 48.125 100.591 47.9688 101.695 47.9688C104.216 47.9688 105.997 48.5104 107.039 49.5938C108.101 50.6771 108.632 52.3021 108.632 54.4688C108.632 55.6771 108.455 57.3125 108.101 59.375C107.518 62.6875 107.226 64.4271 107.226 64.5938C107.226 64.6979 107.299 64.8021 107.445 64.9063C107.591 64.9896 107.747 65.0313 107.914 65.0313C108.101 65.0313 108.226 64.9583 108.289 64.8125C109.122 61.5 109.955 58.7292 110.789 56.5C111.622 54.2708 112.882 52.2917 114.57 50.5625C116.257 48.8333 118.445 47.9688 121.132 47.9688C124.466 47.9688 126.862 48.9896 128.32 51.0313C129.778 53.0521 130.507 55.6042 130.507 58.6875C130.507 61.4375 130.185 64.0938 129.539 66.6563C128.893 69.1979 128.091 71.8542 127.132 74.625C127.174 74.5208 127.028 74.9271 126.695 75.8438L126.757 75.9063L131.32 74.0313C132.945 75.4271 133.893 77.2813 134.164 79.5938C134.164 79.7396 133.695 80.3333 132.758 81.375C131.841 82.4167 130.622 83.3854 129.101 84.2813C127.58 85.1771 125.83 85.625 123.851 85.625C121.872 85.625 120.257 85.0938 119.007 84.0313C117.757 82.9688 117.132 81.1563 117.132 78.5938C117.132 76.5521 117.216 73.8229 117.382 70.4063C117.549 66.9896 117.716 64.2396 117.882 62.1563C117.341 61.5729 116.674 61.2604 115.882 61.2188C115.153 62.1563 114.08 64.0313 112.664 66.8438C111.247 69.6563 110.247 71.7604 109.664 73.1563C109.622 73.4479 109.601 73.7292 109.601 74C109.601 75.0417 109.757 76.4479 110.07 78.2188C110.382 79.9688 110.768 81.6042 111.226 83.125C110.851 83.8333 110.08 84.4271 108.914 84.9063C107.747 85.3854 106.31 85.625 104.601 85.625C103.06 85.625 101.82 85.5 100.882 85.25C99.9658 85 99.32 84.7396 98.945 84.4688C98.57 84.1771 98.3825 84 98.3825 83.9375C98.3617 83.75 98.3096 83.2604 98.2262 82.4688C98.1429 81.6563 98.0596 80.5313 97.9762 79.0938C97.8929 77.6354 97.8512 75.9792 97.8512 74.125Z" fill="#01acbc"/>
<path d="M142.761 64.4063C143.99 64.4063 145.345 64.5313 146.824 64.7813C148.324 65.0313 149.699 65.3333 150.949 65.6875V64.7188C150.949 64.0729 150.928 63.3542 150.886 62.5625C150.865 61.7708 150.824 61.25 150.761 61C150.574 60.6458 150.032 60.2813 149.136 59.9063C148.261 59.5313 146.824 59.3438 144.824 59.3438C143.595 59.3438 142.324 59.5 141.011 59.8125C139.72 60.1042 138.282 60.5 136.699 61C135.845 59.5833 135.157 58.2396 134.636 56.9688C134.136 55.6771 133.886 54.3854 133.886 53.0938C133.886 52.6979 133.918 52.3021 133.98 51.9063C137.355 49.2813 141.72 47.9688 147.074 47.9688C150.032 47.9688 152.657 48.3021 154.949 48.9688C157.24 49.6354 159.126 50.9271 160.605 52.8438C162.084 54.7604 162.824 57.4792 162.824 61C162.824 64.4375 162.418 67.7708 161.605 71C160.813 74.2083 160.407 75.8438 160.386 75.9063L164.918 73.9688C165.522 74.6146 166.053 75.4063 166.511 76.3438C166.99 77.2604 167.293 78.3229 167.418 79.5313C167.126 80.1563 166.49 80.9583 165.511 81.9375C164.532 82.8958 163.334 83.75 161.918 84.5C160.501 85.25 159.022 85.625 157.48 85.625C155.751 85.625 154.438 85.1146 153.543 84.0938C152.668 83.0729 152.23 81.75 152.23 80.125C152.23 79.2083 152.365 78.2813 152.636 77.3438L151.699 77.0625C151.115 80.3542 149.876 82.6042 147.98 83.8125C146.084 85.0208 143.99 85.625 141.699 85.625C140.199 85.625 138.751 85.2083 137.355 84.375C135.959 83.5208 134.824 82.2917 133.949 80.6875C133.074 79.0625 132.636 77.1667 132.636 75C132.636 71.5417 133.501 68.9167 135.23 67.125C136.959 65.3125 139.47 64.4063 142.761 64.4063ZM146.324 76.3125C146.845 76.2083 147.459 75.9167 148.168 75.4375C148.897 74.9583 149.543 74.3854 150.105 73.7188C150.668 73.0521 151.001 72.4167 151.105 71.8125L150.918 71.0625C149.813 70.9167 148.636 70.8438 147.386 70.8438C146.324 70.8438 145.595 70.9271 145.199 71.0938C144.532 71.8438 144.199 72.6771 144.199 73.5938C144.199 74.2604 144.365 74.8646 144.699 75.4063C145.053 75.9479 145.595 76.25 146.324 76.3125Z" fill="#01acbc"/>
<path d="M183.421 89.9688C184.817 89.9688 186.025 89.8125 187.046 89.5C187.359 89.1875 187.577 88.8229 187.702 88.4063C187.827 88.0104 187.89 87.6354 187.89 87.2813C187.89 86.9063 187.859 86.625 187.796 86.4375C187.734 86.2708 187.63 86.1146 187.484 85.9688C186.609 85.8229 185.577 85.7188 184.39 85.6563C183.223 85.6146 182.525 85.5833 182.296 85.5625C179.4 85.4375 177.046 85.2292 175.234 84.9375C173.421 84.625 171.869 83.9583 170.577 82.9375C169.286 81.8958 168.64 80.3333 168.64 78.25C168.64 77.125 169.005 76.0729 169.734 75.0938C170.463 74.0938 171.411 73.2188 172.577 72.4688C170.202 71.4896 168.296 70.0208 166.859 68.0625C165.442 66.0833 164.734 63.5313 164.734 60.4063C164.734 57.3021 165.525 54.8125 167.109 52.9375C168.713 51.0417 170.682 49.7083 173.015 48.9375C175.348 48.1667 177.723 47.7813 180.14 47.7813C181.661 47.7813 183.15 47.9271 184.609 48.2188C186.067 48.5104 187.421 48.9271 188.671 49.4688L187.327 41.5313C188.598 40.7604 190.182 40.375 192.077 40.375C193.452 40.375 194.734 40.6042 195.921 41.0625C197.109 41.5208 198.015 42.1771 198.64 43.0313C198.682 43.2396 198.702 43.5729 198.702 44.0313C198.702 45.7396 198.39 47.6458 197.765 49.75C197.161 51.8333 196.109 53.5104 194.609 54.7813C195.359 56.2813 195.734 57.8958 195.734 59.625C195.734 62.1667 195.244 64.5104 194.265 66.6563C193.307 68.8021 191.702 70.5521 189.452 71.9063C187.202 73.2396 184.275 73.9063 180.671 73.9063C179.63 73.9063 178.546 73.8438 177.421 73.7188C177.359 74.7604 177.609 75.8021 178.171 76.8438C180.984 76.3021 183.255 76.0208 184.984 76L187.109 75.9688C189.984 75.9688 192.161 76.1458 193.64 76.5C195.265 76.8958 196.473 77.7917 197.265 79.1875C198.077 80.5833 198.484 82.2813 198.484 84.2813C198.484 87.4063 197.525 90.0313 195.609 92.1563C193.713 94.3021 191.244 95.8958 188.202 96.9375C185.182 97.9792 181.973 98.5 178.577 98.5C175.432 98.5 172.63 97.9688 170.171 96.9063C167.713 95.8438 166.161 93.8958 165.515 91.0625C166.202 88.6667 167.515 86.8542 169.452 85.625C172.057 87.1875 174.546 88.3021 176.921 88.9688C179.317 89.6354 181.484 89.9688 183.421 89.9688ZM181.515 66.1875C183.015 66.1875 183.89 66.0938 184.14 65.9063C184.702 64.7813 184.984 63.625 184.984 62.4375C184.984 61.2083 184.702 60.0521 184.14 58.9688C183.869 58.7396 183.265 58.5625 182.327 58.4375C181.411 58.3125 180.411 58.25 179.327 58.25C177.973 58.25 177.067 58.3333 176.609 58.5C175.963 59.6458 175.64 60.8021 175.64 61.9688C175.64 63.1563 175.942 64.2813 176.546 65.3438C177.005 65.6354 177.692 65.8542 178.609 66C179.546 66.125 180.515 66.1875 181.515 66.1875Z" fill="#01acbc"/>
<path d="M197.519 66.8438C197.519 63.2396 198.123 60.0208 199.331 57.1875C200.54 54.3542 202.404 52.1146 204.925 50.4688C207.467 48.8021 210.633 47.9688 214.425 47.9688C216.404 47.9688 218.383 48.2083 220.363 48.6875C222.342 49.1458 224.019 49.9167 225.394 51C226.665 52.0208 227.581 53.375 228.144 55.0625C228.727 56.7292 229.019 58.5833 229.019 60.625C229.019 61.9792 228.904 63.3646 228.675 64.7813C228.425 65.1979 227.935 65.75 227.206 66.4375C226.477 67.1042 225.623 67.7604 224.644 68.4063C223.665 69.0521 222.717 69.5521 221.8 69.9063C220.925 69.9688 220.019 70 219.081 70C217.435 70 215.769 69.9271 214.081 69.7813C212.394 69.6354 210.915 69.4688 209.644 69.2813C209.81 71.0521 210.352 72.5938 211.269 73.9063C212.185 75.2188 213.644 75.875 215.644 75.875C215.831 75.875 216.133 75.8542 216.55 75.8125C217.821 75.6875 219.3 75.3542 220.988 74.8125C222.696 74.25 224.394 73.6042 226.081 72.875C226.873 73.6667 227.456 74.4583 227.831 75.25C228.206 76.0417 228.467 77.1771 228.613 78.6563C227.967 79.4063 226.915 80.3229 225.456 81.4063C224.019 82.4896 222.258 83.4688 220.175 84.3438C218.092 85.1979 215.915 85.625 213.644 85.625C210.227 85.625 207.3 84.8021 204.863 83.1563C202.446 81.4896 200.613 79.2396 199.363 76.4063C198.133 73.5521 197.519 70.3646 197.519 66.8438ZM217.644 59.6563C217.352 59.3438 216.863 59.1042 216.175 58.9375C215.488 58.75 214.769 58.6563 214.019 58.6563C213.415 58.6563 212.8 58.7083 212.175 58.8125C211.571 58.9167 211.206 59.0313 211.081 59.1563C210.373 60.5521 209.925 62.1354 209.738 63.9063L218.081 63.0938L217.644 59.6563Z" fill="#01acbc"/>
<path d="M232.491 76.625C232.491 75.7292 232.512 73.5313 232.554 70.0313C232.616 63.1563 232.648 59.3958 232.648 58.75L229.773 58.2813C229.377 57.0938 229.095 55.9792 228.929 54.9375C228.762 53.8958 228.679 52.8438 228.679 51.7813C228.679 51.3438 228.689 51.0104 228.71 50.7813C229.064 50.4688 229.616 50.0938 230.366 49.6563C231.116 49.2188 232.002 48.8333 233.023 48.5C234.043 48.1458 235.085 47.9688 236.148 47.9688C238.627 47.9688 240.418 48.5208 241.523 49.625C242.648 50.7292 243.21 52.3438 243.21 54.4688C243.21 55.7604 243.043 57.4167 242.71 59.4375C242.398 61.4375 242.075 62.8646 241.741 63.7188L242.866 63.9063L244.741 56.8438C245.575 53.6563 246.616 51.3854 247.866 50.0313C249.116 48.6563 250.523 47.9688 252.085 47.9688C253.106 47.9688 254.116 48.125 255.116 48.4375C256.137 48.75 256.918 49.1354 257.46 49.5938C258.043 50.8854 258.335 52.6042 258.335 54.75C258.335 56.25 258.189 57.7396 257.898 59.2188C257.606 60.6771 257.231 61.8542 256.773 62.75L250.21 61.875C248.877 63.2917 247.46 65.2604 245.96 67.7813C244.46 70.2813 243.262 72.5833 242.366 74.6875L242.335 76.3125L248.398 74.875C249.418 76.4375 250.012 78.2917 250.179 80.4375C250.179 80.5625 249.71 81.0729 248.773 81.9688C247.835 82.8646 246.595 83.6979 245.054 84.4688C243.533 85.2188 241.783 85.5938 239.804 85.5938C237.762 85.5938 236.054 85.0521 234.679 83.9688C233.325 82.8646 232.606 81.0104 232.523 78.4063C232.502 78.0938 232.491 77.5 232.491 76.625Z" fill="#01acbc"/>
</g>
<defs>
<filter id="filter0_d_2_2" x="0.59375" y="0.884415" width="261.741" height="105.616" filterUnits="userSpaceOnUse" color-interpolation-filters="sRGB">
<feFlood flood-opacity="0" result="BackgroundImageFix"/>
<feColorMatrix in="SourceAlpha" type="matrix" values="0 0 0 0 0 0 0 0 0 0 0 0 0 0 0 0 0 0 127 0" result="hardAlpha"/>
<feOffset dy="4"/>
<feGaussianBlur stdDeviation="2"/>
<feComposite in2="hardAlpha" operator="out"/>
<feColorMatrix type="matrix" values="0 0 0 0 0 0 0 0 0 0 0 0 0 0 0 0 0 0 0.25 0"/>
<feBlend mode="normal" in2="BackgroundImageFix" result="effect1_dropShadow_2_2"/>
<feBlend mode="normal" in="SourceGraphic" in2="effect1_dropShadow_2_2" result="shape"/>
</filter>
</defs>
</svg>
